<?xml version="1.0" standalone="no"?>
<!DOCTYPE svg PUBLIC "-//W3C//DTD SVG 1.1//EN" "http://www.w3.org/Graphics/SVG/1.1/DTD/svg11.dtd" >
<svg xmlns="http://www.w3.org/2000/svg">
<metadata></metadata>
<defs>
<font id="arquitectaregular" horiz-adv-x="1247" >
<font-face units-per-em="2048" ascent="1536" descent="-512" />
<missing-glyph horiz-adv-x="417" />
<glyph unicode="&#xfb01;" horiz-adv-x="1097" d="M342 596v-596h-141v596h-168v113h168v309q0 174 77.5 260t221.5 86q79 0 153 -37l-39 -121q-49 27 -96 27q-90 0 -133 -51.5t-43 -163.5v-309h258v-113h-258zM901 991q-38 0 -64 26t-26 64q0 39 26 66t64 27t65 -27.5t27 -65.5t-27 -64t-65 -26zM831 709h142v-709h-142 v709z" />
<glyph unicode="&#xfb02;" horiz-adv-x="1081" d="M813 1368h141v-1368h-141v1368zM342 596v-596h-141v596h-168v113h168v309q0 174 77.5 260t221.5 86q79 0 153 -37l-39 -121q-49 27 -96 27q-90 0 -133 -51.5t-43 -163.5v-309h258v-113h-258z" />
<glyph unicode="&#xfb03;" horiz-adv-x="1792" d="M342 596v-596h-141v596h-168v113h168v309q0 174 77.5 260t221.5 86q79 0 153 -37l-39 -121q-49 27 -96 27q-90 0 -133 -51.5t-43 -163.5v-309h258v-113h-258zM1047 596v-596h-142v596h-168v113h168v309q0 174 77.5 260t221.5 86q80 0 154 -37l-39 -121q-49 27 -96 27 q-90 0 -133 -51.5t-43 -163.5v-309h258v-113h-258zM1593 991q-38 0 -64 26t-26 64q0 39 26 66t64 27t65.5 -27.5t27.5 -65.5t-27 -64t-66 -26zM1524 709h141v-709h-141v709z" />
<glyph unicode="&#xfb04;" horiz-adv-x="1773" d="M1505 1368h142v-1368h-142v1368zM342 596v-596h-141v596h-168v113h168v309q0 174 77.5 260t221.5 86q79 0 153 -37l-39 -121q-49 27 -96 27q-90 0 -133 -51.5t-43 -163.5v-309h258v-113h-258zM1047 596v-596h-142v596h-168v113h168v309q0 174 77.5 260t221.5 86 q80 0 154 -37l-39 -121q-49 27 -96 27q-90 0 -133 -51.5t-43 -163.5v-309h258v-113h-258z" />
<glyph horiz-adv-x="0" />
<glyph horiz-adv-x="682" />
<glyph horiz-adv-x="0" />
<glyph horiz-adv-x="0" />
<glyph unicode="&#xd;" horiz-adv-x="227" />
<glyph unicode=" "  horiz-adv-x="417" />
<glyph unicode="&#x09;" horiz-adv-x="417" />
<glyph unicode="&#xa0;" horiz-adv-x="417" />
<glyph unicode="!" horiz-adv-x="487" d="M330 1157l-37 -815h-100l-39 815v72h176v-72zM143 86q0 41 30 70.5t71 29.5q43 0 72.5 -29.5t29.5 -70.5q0 -43 -29.5 -72.5t-72.5 -29.5q-42 0 -71.5 30t-29.5 72z" />
<glyph unicode="&#x22;" horiz-adv-x="610" d="M195 948h-89v27l35 401h135v-26zM449 948h-91v27l37 401h133v-26z" />
<glyph unicode="#" horiz-adv-x="1316" d="M993 862h252l-20 -92h-252l-80 -350h242l-19 -92h-244l-73 -328h-99l74 328h-350l-74 -328h-100l74 328h-252l20 92h252l80 350h-242l19 92h243l76 332h98l-75 -332h350l76 332h100zM444 420h351l77 350h-350z" />
<glyph unicode="$" horiz-adv-x="1097" d="M174 225q5 -5 15 -13t45 -28.5t75 -36t104 -28.5t132 -13q164 0 244.5 56.5t80.5 154.5q0 87 -72 139t-272 109q-232 67 -330 146t-98 215q0 147 108 232.5t298 94.5v177h114v-177q71 -4 134.5 -17.5t104.5 -29.5t72 -31.5t45 -25.5l13 -10l-78 -119q-5 4 -15 11t-44 24 t-72 30t-99 24t-126 11q-137 0 -223 -51t-86 -143q0 -75 73 -122.5t273 -103.5q163 -45 256.5 -99.5t131.5 -121t38 -160.5q0 -145 -99.5 -238.5t-298.5 -107.5v-174h-114v174q-79 3 -150 19t-116 37t-78.5 41t-48.5 34l-15 13z" />
<glyph unicode="%" horiz-adv-x="1374" d="M311 1255q127 0 201 -89.5t74 -219.5q0 -128 -74 -218.5t-201 -90.5q-128 0 -202 90.5t-74 218.5q0 131 74 220t202 89zM1214 1161l-960 -1155l-96 78l958 1155zM311 1139q-70 0 -107.5 -53.5t-37.5 -139.5q0 -85 37.5 -138.5t107.5 -53.5q68 0 106 53.5t38 138.5 q0 86 -37.5 139.5t-106.5 53.5zM1063 602q127 0 201.5 -89.5t74.5 -219.5q0 -128 -74.5 -218.5t-201.5 -90.5t-202 90.5t-75 218.5q0 130 75 219.5t202 89.5zM1063 487q-69 0 -107 -53.5t-38 -140.5q0 -83 38.5 -137t106.5 -54t105.5 54t37.5 137q0 87 -37 140.5t-106 53.5z " />
<glyph unicode="&#x26;" horiz-adv-x="1265" d="M115 326q0 65 22 119t65 95.5t87.5 70t107.5 59.5l-14 14q-137 133 -137 285q0 128 88.5 207t230.5 79q156 0 244 -81t88 -201q0 -51 -16.5 -95.5t-41.5 -77t-66.5 -64.5t-77.5 -53t-89 -48l342 -328q70 129 70 293v43h139v-41q0 -217 -110 -389l204 -197v-16h-164 l-120 117q-154 -144 -387 -144q-218 0 -341.5 97t-123.5 256zM383 956q0 -47 21.5 -92.5t44.5 -73t63 -67.5q59 27 96.5 47.5t76 50.5t57 65t18.5 77q0 74 -46.5 123t-146.5 49q-81 0 -132.5 -48.5t-51.5 -130.5zM580 98q182 0 294 109l-382 373q-108 -56 -165 -112.5 t-57 -137.5q0 -100 86 -166t224 -66z" />
<glyph unicode="'" horiz-adv-x="356" d="M195 948h-89v27l35 401h135v-26z" />
<glyph unicode="(" horiz-adv-x="653" d="M627 1290q-28 -19 -53.5 -37.5t-69.5 -58t-79.5 -81t-76 -105t-67.5 -132t-45.5 -159.5t-18.5 -189t18.5 -189.5t45.5 -160t67.5 -132.5t76 -105.5t79.5 -81t69.5 -58t53.5 -37.5l-72 -100q-31 18 -64 41t-83 66t-93.5 92t-90 121t-79.5 150t-54 181t-21 213 q0 111 21 214t54 181t79.5 149.5t90 120t93.5 92t83 66t64 40.5z" />
<glyph unicode=")" horiz-adv-x="653" d="M98 1391q32 -18 64.5 -40.5t83 -66t94 -92t90.5 -120t80 -149.5t54.5 -181t21.5 -214q0 -110 -21.5 -213t-54.5 -181t-79.5 -150t-90.5 -120.5t-94.5 -92t-83.5 -66.5t-64 -41l-71 100q28 19 53.5 37.5t69.5 58t79.5 81t76 105.5t68 132.5t46 160t18.5 189.5t-18.5 189 t-46 159.5t-68 132t-76 105t-79.5 81t-69.5 58t-53.5 37.5z" />
<glyph unicode="*" horiz-adv-x="851" d="M459 1276h-64l-26 158v59h118v-59zM162 1198l-58 19l37 112l56 -18l143 -76l-21 -59zM532 1176l-18 59l143 76l56 18l35 -112l-56 -19zM340 1116l51 -37l-69 -147l-35 -47l-94 67l32 49zM629 1001l35 -49l-97 -67l-35 47l-69 147l51 35z" />
<glyph unicode="+" horiz-adv-x="991" d="M559 674h334v-119h-334v-324h-123v324h-338v119h338v334h123v-334z" />
<glyph unicode="," horiz-adv-x="294" d="M49 80q0 41 27.5 69.5t68.5 28.5q42 0 71.5 -29t29.5 -71q0 -62 -35 -121l-84 -152h-100l75 136q6 11 13.5 20t11.5 13l4 3v9q-37 5 -59.5 30.5t-22.5 63.5z" />
<glyph unicode="-" horiz-adv-x="804" d="M111 662h583v-119h-583v119z" />
<glyph unicode="." horiz-adv-x="294" d="M49 82q0 41 28.5 69.5t69.5 28.5t70 -28.5t29 -69.5t-29 -69.5t-70 -28.5t-69.5 28.5t-28.5 69.5z" />
<glyph unicode="/" horiz-adv-x="722" d="M207 -360h-144l453 1800h143z" />
<glyph unicode="0" horiz-adv-x="1271" d="M637 -29q-166 0 -290.5 87.5t-187.5 231.5t-63 322q0 180 63 324.5t187.5 231.5t290.5 87t290 -87t186.5 -231.5t62.5 -324.5q0 -132 -36.5 -248.5t-104 -204t-170.5 -138t-228 -50.5zM637 109q124 0 214.5 69t134.5 181.5t44 252.5q0 142 -44 255.5t-134.5 183 t-214.5 69.5q-125 0 -216 -69.5t-135 -183t-44 -255.5q0 -141 44 -253t135 -181t216 -69z" />
<glyph unicode="1" horiz-adv-x="655" d="M45 1229h420v-1229h-143v1096h-277v133z" />
<glyph unicode="2" horiz-adv-x="1040" d="M92 35l545 596q77 85 106 135.5t29 110.5q0 105 -78 174t-207 69q-182 0 -331 -149l-80 112q6 7 18 18.5t52 41t84 52.5t114 41.5t143 18.5q206 0 318.5 -103t112.5 -269q0 -84 -32 -152t-106 -149l-407 -449h575v-133h-856v35z" />
<glyph unicode="3" horiz-adv-x="1052" d="M356 602v47l340 447h-571v133h811v-35l-363 -473h2q174 0 278.5 -101t104.5 -272q0 -165 -120 -271t-328 -106q-75 0 -147.5 18t-120 40.5t-91.5 52t-57.5 41.5t-21.5 20l71 111q6 -6 18 -16t49.5 -35.5t77.5 -45t99.5 -35.5t118.5 -16q139 0 223 68t84 174 q0 117 -74.5 185.5t-203.5 68.5h-179z" />
<glyph unicode="4" horiz-adv-x="1112" d="M53 397l725 832h109v-805h143v-133h-143v-291h-144v291h-690v106zM246 424h497v569l-467 -536l-30 -21v-12z" />
<glyph unicode="5" horiz-adv-x="1040" d="M332 1096l-13 -369q94 16 175 16q226 0 344 -100.5t118 -271.5q0 -188 -117.5 -294t-330.5 -106q-74 0 -146.5 18t-122.5 43.5t-90 51t-59 43.5l-20 18l75 111q6 -6 18 -16t50 -36t78 -46t99.5 -36t117.5 -16q138 0 220.5 70.5t82.5 194.5q0 111 -85.5 176t-233.5 65 q-82 0 -154 -12t-102 -22t-33 -13l-31 25l23 639h700v-133h-563z" />
<glyph unicode="6" horiz-adv-x="1042" d="M100 371q0 167 113 350l324 508h174l-295 -457q-10 -16 -24 -30t-23 -20l-9 -7v-13q80 54 185 54q197 0 317.5 -109.5t120.5 -277.5q0 -181 -123.5 -289.5t-314.5 -108.5q-198 0 -321.5 109.5t-123.5 290.5zM545 621q-127 0 -213 -64.5t-86 -187.5q0 -114 86 -188.5 t213 -74.5q131 0 212 73.5t81 187.5q0 113 -79 183.5t-214 70.5z" />
<glyph unicode="7" horiz-adv-x="935" d="M80 1229h840v-35l-568 -1194h-174l529 1096h-627v133z" />
<glyph unicode="8" horiz-adv-x="1103" d="M553 -29q-207 0 -328 105t-121 260q0 105 55 186t154 127q-77 44 -119 115.5t-42 157.5q0 144 108.5 238.5t292.5 94.5q183 0 291 -94.5t108 -238.5q0 -86 -42 -157.5t-119 -115.5q98 -46 153 -127.5t55 -185.5q0 -155 -120.5 -260t-325.5 -105zM553 702 q117 0 185.5 61.5t68.5 158.5q0 85 -69 141.5t-185 56.5q-117 0 -186.5 -56t-69.5 -142q0 -97 69 -158.5t187 -61.5zM553 106q133 0 217 67.5t84 162.5q0 112 -84.5 181t-216.5 69q-133 0 -218 -69t-85 -181q0 -95 84.5 -162.5t218.5 -67.5z" />
<glyph unicode="9" horiz-adv-x="1044" d="M944 856q0 -167 -113 -350l-321 -506h-174l293 455q10 16 24 30t23 21l8 6v10q-84 -51 -184 -51q-197 0 -318 109.5t-121 277.5q0 181 124 289t315 108q198 0 321 -109t123 -290zM500 606q80 0 146 27t109.5 85.5t43.5 139.5q0 114 -86 188t-213 74q-131 0 -212 -73 t-81 -187q0 -113 79 -183.5t214 -70.5z" />
<glyph unicode=":" horiz-adv-x="407" d="M104 621q0 40 29 69t70 29t69.5 -29t28.5 -69q0 -41 -28.5 -70t-69.5 -29t-70 29t-29 70zM104 82q0 41 29 69.5t70 28.5t69.5 -28.5t28.5 -69.5t-28.5 -69.5t-69.5 -28.5t-70 28.5t-29 69.5z" />
<glyph unicode=";" horiz-adv-x="450" d="M133 621q0 40 28.5 69t69.5 29t70 -29t29 -69q0 -41 -29 -70t-70 -29t-69.5 29t-28.5 70zM131 80q0 41 28.5 69.5t69.5 28.5q42 0 71.5 -29t29.5 -71q0 -62 -35 -121l-86 -152h-98l75 136q5 11 12.5 20t11.5 13l5 3v9q-37 5 -60.5 30.5t-23.5 63.5z" />
<glyph unicode="&#x3c;" horiz-adv-x="768" d="M78 565v47l493 475l84 -88l-428 -411l428 -410l-84 -88z" />
<glyph unicode="=" horiz-adv-x="1054" d="M160 854h735v-119h-735v119zM160 463h735v-119h-735v119z" />
<glyph unicode="&#x3e;" horiz-adv-x="768" d="M197 90l-84 88l428 410l-428 411l84 88l493 -475v-47z" />
<glyph unicode="?" horiz-adv-x="778" d="M76 1184q4 3 12.5 7.5t36.5 17t60 22t83 17t105 7.5q145 0 230 -78.5t85 -199.5q0 -57 -15.5 -106t-41 -85t-56 -69t-62 -65.5t-57.5 -66t-44 -78.5t-21 -97l-4 -72h-98v84q0 73 26 134.5t63.5 105.5t75 85.5t63.5 93.5t26 111q0 80 -54.5 131.5t-144.5 51.5 q-63 0 -117 -15.5t-77 -31.5l-23 -15zM244 82q0 41 28.5 69.5t69.5 28.5t69.5 -28.5t28.5 -69.5t-28.5 -69.5t-69.5 -28.5t-69.5 28.5t-28.5 69.5z" />
<glyph unicode="@" horiz-adv-x="1878" d="M936 -500q-160 0 -298 45t-239 125.5t-173 189.5t-108 238.5t-36 270.5q0 180 58.5 338t166 277.5t272 189t363.5 69.5q160 0 298 -44t235.5 -118.5t167.5 -172.5t103.5 -206.5t33.5 -220.5q0 -230 -93.5 -369t-265.5 -139q-58 0 -104.5 16.5t-71 39.5t-41 46t-21.5 39 l-5 17h-11q-6 -13 -15 -27t-32.5 -37t-53 -40t-78.5 -30t-107 -13q-157 0 -260 102t-103 268q0 169 102.5 270t260.5 101q63 0 114 -14.5t83 -38t51 -44t30 -42.5l23 123h100v-461q0 -75 36.5 -115.5t108.5 -40.5q110 0 171 103t61 270q0 134 -49 254t-139 211t-227 144.5 t-302 53.5q-218 0 -387.5 -98t-261.5 -270t-92 -389q0 -160 53 -299.5t147.5 -240t233 -158.5t301.5 -58q70 0 135 8t107 20t74.5 24t47.5 20l15 8l49 -103q-5 -4 -16 -10t-50 -22t-84 -28t-120 -22t-158 -10zM1149 356q0 116 -69.5 183t-176.5 67q-104 0 -172.5 -69 t-68.5 -181q0 -113 68.5 -184.5t172.5 -71.5q106 0 176 69.5t70 186.5z" />
<glyph unicode="A" d="M606 1229h33l606 -1229h-164l-108 213h-699l-108 -213h-162zM631 938h-17l-260 -569l-10 -19h559l-10 19z" />
<glyph unicode="B" horiz-adv-x="1300" d="M1198 340q0 -169 -123.5 -254.5t-331.5 -85.5h-567v1229h541q206 0 323 -85.5t117 -246.5q0 -99 -51 -166.5t-141 -97.5v-12q106 -29 169.5 -101.5t63.5 -179.5zM1010 891q0 205 -295 205h-396v-408h396q135 0 215 54.5t80 148.5zM319 551v-418h429q133 0 218 55t85 160 q0 93 -79.5 145.5t-205.5 57.5h-447z" />
<glyph unicode="C" horiz-adv-x="1210" d="M1155 129q-6 -6 -16.5 -17t-50 -38t-84.5 -48t-119.5 -38t-155.5 -17q-186 0 -333.5 85.5t-227.5 231.5t-80 324q0 180 80 326.5t227 231.5t334 85q81 0 154.5 -16t121 -39.5t83 -46.5t51.5 -39l16 -16l-82 -111q-5 5 -15 14t-44 32t-71 40.5t-94.5 32t-117.5 14.5 q-144 0 -259 -69t-177 -184.5t-62 -254.5q0 -138 62 -253t177 -184t259 -69q60 0 117 14t96 33.5t69.5 39t44.5 33.5l15 14z" />
<glyph unicode="D" horiz-adv-x="1349" d="M1257 614q0 -186 -82.5 -325.5t-230.5 -214t-342 -74.5h-426v1229h426q294 0 474.5 -167t180.5 -448zM319 1096v-963h275q147 0 264 56t185.5 166.5t68.5 258.5t-68.5 258.5t-185.5 167t-264 56.5h-275z" />
<glyph unicode="E" horiz-adv-x="1157" d="M987 539h-668v-406h758v-133h-901v1229h901v-133h-758v-424h668v-133z" />
<glyph unicode="F" horiz-adv-x="1138" d="M176 1229h901v-133h-758v-424h668v-133h-668v-539h-143v1229z" />
<glyph unicode="G" horiz-adv-x="1384" d="M690 672h606v-86q0 -282 -153.5 -448.5t-421.5 -166.5q-191 0 -336.5 86t-221 230.5t-75.5 324.5q0 181 77.5 326.5t225 231t338.5 85.5q88 0 167 -16.5t129 -40.5t88 -47.5t55 -40.5l16 -16l-84 -109q-5 5 -15.5 14.5t-46 32.5t-75.5 41t-103.5 32.5t-130.5 14.5 q-149 0 -263.5 -69t-173.5 -184t-59 -255q0 -139 57 -253t169.5 -183.5t261.5 -69.5q191 0 310 114.5t122 303.5v15h-463v133z" />
<glyph unicode="H" horiz-adv-x="1376" d="M1202 0h-143v539h-740v-539h-143v1229h143v-557h740v557h143v-1229z" />
<glyph unicode="I" horiz-adv-x="495" d="M319 0h-143v1229h143v-1229z" />
<glyph unicode="J" horiz-adv-x="927" d="M119 180q11 -8 30 -20t77.5 -31.5t115.5 -19.5q279 0 279 313v807h143v-836q0 -204 -105.5 -313t-304.5 -109q-55 0 -106 10t-84 23.5t-61 30t-38.5 24.5t-15.5 13z" />
<glyph unicode="K" horiz-adv-x="1216" d="M319 549l689 680h172v-25l-494 -489l494 -690v-25h-164l-434 610l-263 -260v-350h-143v1229h143v-680z" />
<glyph unicode="L" horiz-adv-x="1060" d="M176 0v1229h143v-1096h717v-133h-860z" />
<glyph unicode="M" horiz-adv-x="1550" d="M1233 911l-436 -475h-43l-435 469v-905h-143v1229h41l559 -602l561 602h37v-1229h-141v911z" />
<glyph unicode="N" horiz-adv-x="1425" d="M1249 0h-43l-887 928v-928h-143v1229h43l887 -924v924h143v-1229z" />
<glyph unicode="O" horiz-adv-x="1447" d="M723 -29q-142 0 -262 50t-201 136t-126.5 203.5t-45.5 251.5q0 181 77 326.5t223 231t335 85.5q190 0 336.5 -85.5t223.5 -231t77 -326.5q0 -134 -45.5 -251.5t-127 -203.5t-201.5 -136t-263 -50zM723 109q221 0 356 145t135 358q0 140 -58.5 255t-172 184t-260.5 69 q-146 0 -259 -69t-172 -184t-59 -255q0 -139 59 -252.5t172 -182t259 -68.5z" />
<glyph unicode="P" horiz-adv-x="1230" d="M176 1229h504q231 0 360 -106t129 -304q0 -206 -133 -316t-364 -110h-353v-393h-143v1229zM1024 815q0 139 -93 210t-255 71h-357v-570h357q165 0 256.5 70.5t91.5 218.5z" />
<glyph unicode="Q" horiz-adv-x="1447" d="M723 -29q-142 0 -262 50t-201 136t-126.5 203.5t-45.5 251.5q0 181 77 326.5t223 231t335 85.5q190 0 336.5 -85.5t223.5 -231t77 -326.5q0 -170 -70.5 -310t-199.5 -226l110 -162v-25h-158l-81 121q-112 -39 -238 -39zM694 438h154l164 -243q96 67 149 176.5t53 240.5 q0 140 -58.5 255t-172 184t-260.5 69q-146 0 -259 -69t-172 -184t-59 -255q0 -139 59 -252.5t172 -182t259 -68.5q93 0 158 22l-187 283v24z" />
<glyph unicode="R" horiz-adv-x="1284" d="M176 1229h502q232 0 361.5 -106t129.5 -304q0 -148 -77 -247t-211 -138v-6l323 -393v-35h-155l-338 408h-392v-408h-143v1229zM1022 815q0 139 -92.5 210t-253.5 71h-357v-555h375q149 0 238.5 69t89.5 205z" />
<glyph unicode="S" horiz-adv-x="1093" d="M170 225q5 -5 15 -13t45 -28.5t75 -36t104 -28.5t132 -13q164 0 244.5 56.5t80.5 154.5q0 87 -72 139t-272 109q-232 67 -330 146t-98 215q0 156 121.5 242.5t333.5 86.5q84 0 159.5 -12t123.5 -29t84 -34t52 -29l15 -12l-78 -119q-5 4 -15 11t-44 24t-72 30t-99 24 t-126 11q-137 0 -223 -51t-86 -143q0 -75 73 -122.5t273 -103.5q163 -45 256.5 -99.5t131.5 -121t38 -160.5q0 -158 -116.5 -253t-352.5 -95q-87 0 -165.5 15t-128.5 36.5t-87 43t-54 36.5l-16 15z" />
<glyph unicode="T" horiz-adv-x="1069" d="M33 1229h1005v-133h-432v-1096h-143v1096h-430v133z" />
<glyph unicode="U" horiz-adv-x="1347" d="M674 -29q-241 0 -378.5 149t-137.5 394v715h143v-715q0 -184 96.5 -296t276.5 -112q181 0 277 112t96 296v715h143v-715q0 -246 -136.5 -394.5t-379.5 -148.5z" />
<glyph unicode="V" d="M762 575l319 654h160l-602 -1229h-33l-602 1229h160l325 -654l127 -299h15z" />
<glyph unicode="W" horiz-adv-x="1665" d="M778 1229h111l248 -889l20 -96h8l25 96l301 889h147l-426 -1229h-127l-247 883l-4 30h-9l-4 -30l-252 -883h-120l-426 1229h147l305 -889l21 -96h8l22 96z" />
<glyph unicode="X" horiz-adv-x="1132" d="M670 631l432 -631h-172l-318 459l-45 90l-51 -90l-313 -459h-170l428 631l-412 598h172l305 -441l41 -81l43 81l303 441h170z" />
<glyph unicode="Y" horiz-adv-x="1116" d="M940 1229h166l-477 -760v-469h-144v471l-475 758h168l342 -549l31 -66h18l33 66z" />
<glyph unicode="Z" horiz-adv-x="1103" d="M63 35l754 1061h-727v133h959v-35l-742 -1061h725v-133h-969v35z" />
<glyph unicode="[" horiz-adv-x="653" d="M158 1380h446v-118h-309v-1467h309v-119h-446v1704z" />
<glyph unicode="\" horiz-adv-x="722" d="M63 1440h144l452 -1800h-143z" />
<glyph unicode="]" horiz-adv-x="653" d="M49 -205h309v1467h-309v118h447v-1704h-447v119z" />
<glyph unicode="^" horiz-adv-x="827" d="M414 1257l-193 -256h-100v27l248 340h90l248 -340v-27h-101z" />
<glyph unicode="_" horiz-adv-x="1007" d="M94 -41h811v-119h-811v119z" />
<glyph unicode="`" horiz-adv-x="520" d="M119 1155v27h172l92 -297v-27h-90z" />
<glyph unicode="a" horiz-adv-x="866" d="M59 213q0 96 83 157.5t241 61.5q145 0 225 -59h13v37q0 97 -57 146.5t-181 49.5q-57 0 -109 -14t-75 -28l-23 -15l-51 106q4 3 10.5 7.5t32.5 16.5t56 21.5t80 17t106 7.5q179 0 262.5 -90t83.5 -244v-391h-99l-14 84h-8q-9 -13 -25.5 -27.5t-47.5 -32t-82.5 -29 t-114.5 -11.5q-151 0 -228.5 64.5t-77.5 164.5zM201 213q0 -55 48.5 -90t139.5 -35q93 0 160 44t67 85q0 52 -63.5 85.5t-163.5 33.5q-89 0 -138.5 -33t-49.5 -90z" />
<glyph unicode="b" horiz-adv-x="958" d="M123 1368h141v-758h6q2 5 7 12.5t26 27.5t48 35t75.5 27.5t105.5 12.5q150 0 251.5 -104t101.5 -267q0 -166 -101.5 -268t-255.5 -102q-61 0 -112 13.5t-80.5 33t-50.5 39.5t-29 34l-8 13h-6l-19 -117h-100v1368zM256 354q0 -115 70.5 -183.5t175.5 -68.5q103 0 171 71 t68 181q0 112 -67.5 182t-171.5 70q-105 0 -175.5 -68.5t-70.5 -183.5z" />
<glyph unicode="c" horiz-adv-x="745" d="M461 -16q-170 0 -279.5 103t-109.5 265q0 164 110 268.5t279 104.5q68 0 126 -15.5t83 -30.5l24 -15l-43 -107q-8 5 -22.5 13.5t-61.5 22t-96 13.5q-108 0 -182 -70t-74 -184t74 -182t182 -68q49 0 94 12.5t65 25.5l21 12l39 -107q-9 -7 -26 -17t-76 -27t-127 -17z" />
<glyph unicode="d" horiz-adv-x="958" d="M694 621v747h142v-1368h-99l-20 109h-6q-3 -5 -9 -13.5t-29.5 -30t-52.5 -38t-80 -30t-110 -13.5q-154 0 -256 102t-102 268q0 164 101.5 267.5t252.5 103.5q56 0 104 -10.5t75.5 -26t47.5 -31t27 -25.5l8 -11h6zM702 354q0 115 -70 183.5t-175 68.5q-104 0 -173 -70.5 t-69 -181.5q0 -109 69.5 -180.5t172.5 -71.5q105 0 175 68.5t70 183.5z" />
<glyph unicode="e" horiz-adv-x="851" d="M737 63q-4 -3 -11 -8.5t-32 -19.5t-53.5 -24.5t-74.5 -19.5t-95 -9q-180 0 -289.5 103t-109.5 267q0 162 103.5 267.5t266.5 105.5q162 0 255.5 -99.5t93.5 -254.5v-47h-580q10 -109 82.5 -167.5t179.5 -58.5q61 0 114.5 15.5t76.5 30.5l24 16zM440 610 q-87 0 -145.5 -47.5t-77.5 -134.5h434q-14 80 -70.5 131t-140.5 51z" />
<glyph unicode="f" horiz-adv-x="641" d="M342 596v-596h-141v596h-168v113h168v309q0 174 77.5 260t221.5 86q79 0 153 -37l-39 -121q-49 27 -96 27q-90 0 -133 -51.5t-43 -163.5v-309h258v-113h-258z" />
<glyph unicode="g" horiz-adv-x="825" d="M430 -485q-182 0 -280.5 71.5t-98.5 190.5q0 139 131 203v10q-123 51 -123 160q0 104 115 157q-49 64 -49 150q0 116 81.5 191t209.5 75l370 -14v-105h-127v-8q2 -1 5.5 -4t12 -14t15 -26t12 -42t5.5 -59q0 -103 -81.5 -177.5t-211.5 -74.5q-98 0 -168 43 q-64 -33 -64 -80q0 -48 54 -73.5t192 -25.5q191 0 287 -70t96 -198q0 -124 -101 -202t-282 -78zM416 610q-80 0 -126 -42.5t-46 -108.5q0 -68 46 -110t126 -42q81 0 127.5 42t46.5 110q0 66 -46.5 108.5t-127.5 42.5zM430 -51q-116 0 -180 -46.5t-64 -115.5q0 -70 63 -115 t181 -45q119 0 181.5 44t62.5 116q0 71 -63 116.5t-181 45.5z" />
<glyph unicode="h" horiz-adv-x="935" d="M123 1368h141v-727h6q84 84 238 84q147 0 231 -87.5t84 -234.5v-403h-141v385q0 99 -53.5 160t-151.5 61q-99 0 -156 -56.5t-57 -123.5v-426h-141v1368z" />
<glyph unicode="i" horiz-adv-x="393" d="M197 991q-38 0 -64.5 26t-26.5 64t26.5 65.5t64.5 27.5t65 -27.5t27 -65.5t-27 -64t-65 -26zM127 709h141v-709h-141v709z" />
<glyph unicode="j" horiz-adv-x="385" d="M193 991q-39 0 -66 26t-27 64t27.5 65.5t65.5 27.5t64 -27t26 -66q0 -38 -26 -64t-64 -26zM-45 -270q35 -21 76 -21q47 0 68.5 27.5t21.5 87.5v885h143v-891q0 -115 -49 -172.5t-154 -57.5q-36 0 -69.5 9t-48.5 17l-15 9z" />
<glyph unicode="k" horiz-adv-x="804" d="M743 709l-335 -347l385 -362h-199l-328 322h-4v-322h-141v1368h141v-981h4l307 322h170z" />
<glyph unicode="l" horiz-adv-x="393" d="M127 1368h141v-1368h-141v1368z" />
<glyph unicode="m" horiz-adv-x="1495" d="M823 0h-141v410q0 88 -53.5 142t-151.5 54q-99 0 -156 -56.5t-57 -123.5v-426h-141v709h98l15 -103h8q45 61 107 90t157 29q94 0 163.5 -34.5t108.5 -96.5h8q86 131 281 131q147 0 230 -87.5t83 -234.5v-403h-141v385q0 99 -52.5 160t-150.5 61q-104 0 -159.5 -59 t-55.5 -133v-414z" />
<glyph unicode="n" horiz-adv-x="933" d="M264 0h-141v709h98l15 -103h8q82 119 264 119q147 0 231 -87.5t84 -234.5v-403h-141v385q0 99 -53.5 160t-151.5 61q-70 0 -120.5 -32t-71.5 -74t-21 -86v-414z" />
<glyph unicode="o" horiz-adv-x="913" d="M844 350q0 -165 -111.5 -265.5t-275.5 -100.5t-274.5 100.5t-110.5 265.5q0 167 111 271t274 104q164 0 275.5 -104t111.5 -271zM457 98q105 0 176.5 69.5t71.5 184.5t-72 186.5t-176 71.5q-103 0 -174.5 -71.5t-71.5 -186.5t71.5 -184.5t174.5 -69.5z" />
<glyph unicode="p" horiz-adv-x="958" d="M264 88v-481h-141v1102h98l19 -103h12q3 5 9 13t29.5 28.5t52 36t78.5 28.5t107 13q154 0 255.5 -102.5t101.5 -268.5q0 -163 -101.5 -266.5t-251.5 -103.5q-57 0 -105.5 10.5t-76 26t-47 31t-26.5 26.5l-7 10h-6zM256 354q0 -115 70.5 -183.5t175.5 -68.5 q104 0 171.5 70t67.5 182q0 110 -68 181t-171 71q-105 0 -175.5 -68.5t-70.5 -183.5z" />
<glyph unicode="q" horiz-adv-x="958" d="M836 -393h-142v491h-6q-2 -5 -7 -12.5t-26 -27t-48 -34.5t-75.5 -27.5t-105.5 -12.5q-151 0 -252.5 103.5t-101.5 266.5q0 166 102 268.5t256 102.5q60 0 111 -13.5t80.5 -33.5t50.5 -39.5t29 -32.5l8 -14h8l18 117h101v-1102zM702 354q0 115 -70 183.5t-175 68.5 q-103 0 -172.5 -71.5t-69.5 -180.5q0 -111 69 -181.5t173 -70.5q105 0 175 68.5t70 183.5z" />
<glyph unicode="r" horiz-adv-x="591" d="M537 567q-34 21 -95 21q-68 0 -123 -44.5t-55 -109.5v-434h-141v709h98l15 -103h6q68 103 209 103q39 0 73 -7.5t48 -15.5l14 -8z" />
<glyph unicode="s" horiz-adv-x="772" d="M123 168q12 -8 34 -19.5t90 -31t136 -19.5q88 0 136 24.5t48 70.5q0 30 -27 51t-70 34t-95 25t-103.5 28t-94.5 38t-70 60.5t-27 90.5q0 91 75.5 148t225.5 57q88 0 162.5 -14.5t105.5 -28.5l31 -14l-53 -115q-9 6 -26.5 15.5t-77.5 25.5t-128 16q-89 0 -134.5 -19.5 t-45.5 -68.5q0 -28 27 -48t70 -32t94.5 -23t103.5 -27t95 -38.5t70 -62.5t27 -94q0 -93 -79 -153t-240 -60q-61 0 -116 9t-90 21.5t-61.5 25t-37.5 21.5l-12 9z" />
<glyph unicode="t" horiz-adv-x="643" d="M172 709v213h141v-213h277v-115h-277v-299q0 -99 39.5 -145t120.5 -46q24 0 48.5 7t36.5 15l13 7l47 -98q-7 -6 -20 -14.5t-56 -22.5t-89 -14q-136 0 -208.5 78t-72.5 229v303h-141v115h141z" />
<glyph unicode="u" horiz-adv-x="927" d="M666 709h141v-709h-92l-25 100h-6q-5 -10 -15.5 -22.5t-32.5 -30t-50 -31t-72 -23t-94 -9.5q-147 0 -228 87t-81 234v404h141v-385q0 -100 50.5 -161t148.5 -61q103 0 159 61.5t56 131.5v414z" />
<glyph unicode="v" horiz-adv-x="835" d="M467 0h-98l-349 709h158l223 -490q13 -35 13 -51h8q0 23 14 51l223 490h156z" />
<glyph unicode="w" horiz-adv-x="1196" d="M31 709h149l172 -490q13 -35 13 -51h14q0 3 12 51l154 490h114l154 -490q10 -27 10 -51h15q0 19 12 51l176 490h139l-284 -709h-115l-154 483q-10 27 -10 52h-8q0 -25 -10 -52l-154 -483h-115z" />
<glyph unicode="x" horiz-adv-x="802" d="M317 367l-270 342h162l190 -254h4l193 254h160l-271 -342l289 -367h-162l-209 281h-4l-211 -281h-159z" />
<glyph unicode="y" horiz-adv-x="833" d="M289 -393h-150l213 432l-325 670h155l226 -490q12 -32 12 -51h8q0 19 12 51l224 490h145z" />
<glyph unicode="z" horiz-adv-x="772" d="M66 0v68l440 524h-418v117h617v-62l-441 -530h441v-117h-639z" />
<glyph unicode="{" horiz-adv-x="526" d="M70 586q55 0 89 41.5t34 120.5v462q0 215 231 232l20 -121q-57 -8 -79.5 -33.5t-22.5 -91.5v-463q0 -163 -113 -201v-16q55 -17 84 -69t29 -128v-464q0 -65 22.5 -91t79.5 -34l-20 -119q-231 14 -231 229v465q0 77 -34.5 119.5t-88.5 42.5h-29v119h29z" />
<glyph unicode="|" horiz-adv-x="446" d="M289 -311h-131v1689h131v-1689z" />
<glyph unicode="}" horiz-adv-x="526" d="M455 467q-54 0 -88.5 -42.5t-34.5 -119.5v-465q0 -215 -232 -229l-18 119q57 8 78.5 34t21.5 91v464q0 76 29.5 128t85.5 69v16q-115 38 -115 201v463q0 66 -21.5 91.5t-78.5 33.5l18 121q232 -17 232 -232v-462q0 -79 34 -120.5t89 -41.5h30v-119h-30z" />
<glyph unicode="~" horiz-adv-x="927" d="M612 633q45 0 83 10.5t53 21.5l16 11l47 -88q-2 -3 -7 -7.5t-23 -16t-38.5 -20.5t-55.5 -16.5t-73 -7.5q-52 0 -147 26.5t-154 26.5q-44 0 -82 -10.5t-53 -21.5l-16 -11l-45 88q2 3 7 7.5t22.5 16t38 20.5t54.5 16.5t72 7.5q52 0 147 -26.5t154 -26.5z" />
<glyph unicode="&#xa1;" horiz-adv-x="485" d="M141 1143q0 43 30 72.5t73 29.5q42 0 72 -30t30 -72q0 -41 -30.5 -71t-71.5 -30q-43 0 -73 30t-30 71zM330 0h-176v72l36 815h101l39 -815v-72z" />
<glyph unicode="&#xa2;" horiz-adv-x="841" d="M420 -10q-144 20 -233 118.5t-89 243.5t88.5 245t231.5 122v180h102v-176q61 -3 115 -18t78 -29l24 -14l-49 -111q-9 6 -25 15t-65.5 24.5t-97.5 15.5q-108 0 -183 -70t-75 -184q0 -113 75 -181.5t183 -68.5q48 0 95 13.5t70 26.5l23 14l49 -109q-9 -6 -26 -15t-73 -25.5 t-116 -20.5v-172h-102v176z" />
<glyph unicode="&#xa3;" horiz-adv-x="1050" d="M932 8h-797v127q6 2 16 7t31.5 22.5t38.5 40t30 63t13 88.5q0 51 -43 158h-125v115h82q-35 100 -35 192q0 78 29 151t84 134.5t147.5 99t208.5 37.5q69 0 129.5 -13.5t98 -32.5t65.5 -37.5t39 -31.5l12 -14l-79 -104q-3 4 -9.5 10.5t-30 23t-50.5 29t-72 23t-94 10.5 q-80 0 -143.5 -26t-101 -69t-56.5 -94t-19 -106q0 -86 35 -182h495v-115h-450q35 -89 35 -154q0 -139 -90 -225h606v-127z" />
<glyph unicode="&#xa4;" horiz-adv-x="1181" d="M139 246l115 119q-80 107 -80 243q0 137 82 246l-117 121l94 92l113 -127q111 80 242 80q133 0 246 -82l114 129l94 -92l-120 -125q79 -110 79 -242t-77 -239l118 -123l-94 -92l-112 125q-113 -82 -248 -82q-138 0 -246 79l-109 -122zM309 608q0 -116 82 -198t197 -82 t196.5 82t81.5 198q0 117 -81 199t-197 82t-197.5 -82t-81.5 -199z" />
<glyph unicode="&#xa5;" horiz-adv-x="1226" d="M995 1229h166l-405 -645h288v-115h-360v-178h360v-115h-360v-176h-143v176h-363v115h363v178h-363v115h291l-403 645h167l342 -549l31 -66h19l32 66z" />
<glyph unicode="&#xa6;" horiz-adv-x="448" d="M158 -311v1689h133v-1689h-133z" />
<glyph unicode="&#xa7;" horiz-adv-x="1089" d="M160 -145q6 -5 17.5 -14.5t49.5 -32.5t79.5 -40.5t105.5 -32t129 -14.5q151 0 225 59.5t74 147.5q0 91 -67.5 146.5t-242.5 120.5q-69 25 -115 45t-89.5 46t-68.5 53.5t-39.5 64t-14.5 81.5q0 110 80 166q-172 99 -172 264q0 153 114 246.5t334 93.5q83 0 157.5 -13 t121.5 -31.5t82 -37.5t50 -32l15 -13l-80 -118q-5 5 -14.5 12.5t-42.5 27t-70 34.5t-96.5 27.5t-122.5 12.5q-143 0 -215 -55t-72 -145q0 -83 66 -141.5t199 -102.5q89 -30 150 -57t115 -63.5t80.5 -83t26.5 -103.5q0 -112 -73 -180q168 -105 168 -265q0 -68 -26.5 -127.5 t-79.5 -108t-143.5 -76.5t-209.5 -28q-88 0 -168 16t-131.5 39t-91 46t-56.5 39l-18 16zM487 567q-22 6 -84 29q-59 -25 -59 -102q0 -56 55.5 -98t182.5 -87q112 -43 135 -53q47 40 47 109q0 62 -66.5 108t-210.5 94z" />
<glyph unicode="&#xa8;" horiz-adv-x="825" d="M137 989q0 35 26.5 61.5t61.5 26.5t61.5 -26.5t26.5 -61.5t-26.5 -61.5t-61.5 -26.5t-61.5 26.5t-26.5 61.5zM506 989q0 35 26.5 61.5t61.5 26.5t61.5 -26.5t26.5 -61.5t-26.5 -61.5t-61.5 -26.5t-61.5 26.5t-26.5 61.5z" />
<glyph unicode="&#xa9;" horiz-adv-x="1476" d="M737 1239q195 0 343 -85.5t224 -227t76 -314.5q0 -172 -76 -313t-224 -226t-343 -85q-146 0 -268 49.5t-203.5 134.5t-126.5 198.5t-45 241.5q0 129 45 243t126.5 199.5t203.5 135t268 49.5zM737 1153q-166 0 -293 -73t-192.5 -195.5t-65.5 -272.5q0 -148 65.5 -269.5 t192.5 -195t293 -73.5q167 0 294.5 73.5t193 194.5t65.5 270q0 150 -65.5 272.5t-193 195.5t-294.5 73zM915 799q-6 6 -18.5 14.5t-55 22.5t-89.5 14q-108 0 -173 -67t-65 -169q0 -101 65 -167t173 -66q47 0 88 12.5t58 25.5l17 13l54 -70q-3 -3 -8.5 -8t-25 -18t-43 -23 t-62.5 -18t-82 -8q-155 0 -246.5 93t-91.5 234q0 142 91.5 236t246.5 94q43 0 81.5 -8t63 -19t42.5 -22t26 -19l8 -8z" />
<glyph unicode="&#xaa;" horiz-adv-x="833" d="M76 754q0 98 80 155.5t215 57.5q160 0 227 -62v33q0 109 -51 163t-172 54q-30 0 -60.5 -4.5t-56 -11.5t-43.5 -13t-33 -12l-16 -6l-37 96q15 6 40.5 15t95.5 23.5t130 14.5q172 0 248 -83.5t76 -239.5v-373h-88l-19 66h-14q-60 -82 -248 -82q-121 0 -197.5 57.5 t-76.5 151.5zM195 760q0 -60 49.5 -93.5t136.5 -33.5q94 0 155.5 38t61.5 89q0 61 -57 94t-148 33q-95 0 -146.5 -33.5t-51.5 -93.5z" />
<glyph unicode="&#xab;" horiz-adv-x="847" d="M80 371l217 317h123v-16l-213 -314v-10l213 -317v-17h-123l-217 318v39zM428 371l217 317h121v-16l-213 -314v-10l213 -317v-17h-121l-217 318v39z" />
<glyph unicode="&#xac;" horiz-adv-x="1126" d="M68 711h888v-711h-120v592h-768v119z" />
<glyph unicode="&#xad;" horiz-adv-x="804" d="M111 662h583v-119h-583v119z" />
<glyph unicode="&#xae;" horiz-adv-x="1165" d="M1069 778q0 -131 -57.5 -238.5t-170 -173t-259.5 -65.5t-259 66t-168.5 173.5t-56.5 237.5q0 131 57 238.5t168.5 173t258.5 65.5t259.5 -65.5t170 -173t57.5 -238.5zM975 778q0 168 -108.5 278.5t-284.5 110.5t-284 -108t-108 -281q0 -167 109 -278t283 -111 q176 0 284.5 110.5t108.5 278.5zM592 993q83 0 134.5 -40t51.5 -111q0 -90 -84 -131l88 -113v-18h-77l-84 110h-144v-110h-76v413h191zM477 924v-166h111q50 0 80 21t30 63q0 40 -28.5 61t-77.5 21h-115z" />
<glyph unicode="&#xaf;" horiz-adv-x="937" d="M209 1001h541v-92h-541v92z" />
<glyph unicode="&#xb0;" horiz-adv-x="634" d="M317 1376q106 0 173 -63.5t67 -157.5t-67 -156.5t-173 -62.5t-172.5 62.5t-66.5 156.5t66.5 157.5t172.5 63.5zM317 1296q-68 0 -109.5 -40.5t-41.5 -100.5q0 -58 41.5 -97.5t109.5 -39.5t110 39.5t42 97.5q0 60 -42 100.5t-110 40.5z" />
<glyph unicode="&#xb1;" horiz-adv-x="1132" d="M510 346v352h-373v119h373v361h121v-361h364v-119h-364v-352h-121zM995 82h-858v119h858v-119z" />
<glyph unicode="&#xb2;" horiz-adv-x="643" d="M55 735l312 289q75 69 75 139q0 57 -36.5 91t-112.5 34q-46 0 -91.5 -17.5t-64.5 -31t-26 -20.5l-54 77q4 4 11 10t31.5 21.5t51 27.5t67 21.5t81.5 9.5q129 0 190.5 -58.5t61.5 -151.5q0 -103 -98 -195l-207 -190h344v-91h-535v35z" />
<glyph unicode="&#xb3;" horiz-adv-x="643" d="M76 1368h481v-29l-158 -237q92 -10 140.5 -61.5t48.5 -137.5q0 -94 -71.5 -156.5t-203.5 -62.5q-44 0 -86.5 9t-71 21.5t-53.5 27.5t-35.5 23t-15.5 13l58 76q9 -8 26 -20.5t69.5 -33t106.5 -20.5q83 0 127.5 35t44.5 90q0 54 -36.5 86.5t-102.5 32.5h-88v31l150 223 h-330v90z" />
<glyph unicode="&#xb4;" horiz-adv-x="505" d="M197 858h-88v27l92 297h170v-27z" />
<glyph unicode="&#xb5;" horiz-adv-x="1021" d="M158 -393v1102h141v-385q0 -100 50.5 -161t148.5 -61q103 0 159 61.5t56 131.5v414h141v-709h-92l-25 100h-6q-5 -10 -15.5 -22.5t-32.5 -30t-50 -31t-72 -23t-94 -9.5q-96 0 -170 41v-418h-139z" />
<glyph unicode="&#xb6;" horiz-adv-x="1021" d="M686 223h-139q-226 0 -355 106t-129 306q0 193 125.5 295t352.5 102h288v-1378h-143v569z" />
<glyph unicode="&#xb7;" horiz-adv-x="305" d="M49 735q0 43 30 73t71 30q43 0 72.5 -30t29.5 -73q0 -41 -29.5 -70.5t-72.5 -29.5q-41 0 -71 29.5t-30 70.5z" />
<glyph unicode="&#xb8;" horiz-adv-x="442" d="M137 -92l49 96h82l-32 -65q62 0 100.5 -33t38.5 -96q0 -64 -44 -104t-122 -40q-45 0 -82.5 14.5t-52.5 29.5l-15 14l33 59q5 -5 14.5 -12t39.5 -19t61 -12q41 0 65.5 19t24.5 53q0 32 -24 50.5t-62 18.5q-13 0 -23.5 -2.5t-15.5 -4.5l-4 -3z" />
<glyph unicode="&#xb9;" horiz-adv-x="399" d="M39 1368h252v-668h-103v578h-149v90z" />
<glyph unicode="&#xba;" horiz-adv-x="864" d="M432 1255q156 0 255 -97t99 -259q0 -157 -99.5 -252.5t-254.5 -95.5t-254.5 95.5t-99.5 252.5q0 162 99 259t255 97zM432 1151q-106 0 -170.5 -68t-64.5 -182q0 -110 64.5 -178t170.5 -68t171 68t65 178q0 114 -65 182t-171 68z" />
<glyph unicode="&#xbb;" horiz-adv-x="847" d="M422 332l-217 -318h-123v17l213 317v10l-213 314v16h123l217 -317v-39zM768 332l-217 -318h-123v17l213 317v10l-213 314v16h123l217 -317v-39z" />
<glyph unicode="&#xbc;" horiz-adv-x="1298" d="M76 1229h254v-668h-103v578h-151v90zM113 74l960 1155l76 -62l-961 -1155zM657 244l383 424h76v-402h109v-86h-109v-180h-98v180h-361v64zM854 330q-18 -22 -66 -70l99 6h131v189l2 63h-4z" />
<glyph unicode="&#xbd;" horiz-adv-x="1468" d="M82 1229h252v-668h-103v578h-149v90zM106 74l961 1155l76 -62l-963 -1155zM862 0h535v90h-344l207 191q100 93 100 194q0 94 -61.5 152.5t-190.5 58.5q-42 0 -82.5 -9.5t-68.5 -22.5t-50 -26t-33 -22l-10 -10l54 -78q7 7 26 20.5t64.5 31.5t91.5 18q76 0 113.5 -34 t37.5 -91q0 -69 -77 -139l-312 -289v-35z" />
<glyph unicode="&#xbe;" horiz-adv-x="1507" d="M109 1229h479v-29l-158 -237q92 -10 140 -61.5t48 -137.5q0 -95 -71 -157t-203 -62q-43 0 -85.5 9t-71 21.5t-54 27.5t-36 23t-15.5 13l57 76q9 -8 26.5 -20.5t70.5 -33t106 -20.5q84 0 128 35t44 90q0 56 -39.5 87.5t-112.5 31.5h-75v30l149 224h-327v90zM322 74 l960 1155l76 -62l-961 -1155zM864 244l383 424h76v-402h109v-86h-109v-180h-98v180h-361v64zM1061 330q-18 -22 -66 -70l99 6h131v189l2 63h-4z" />
<glyph unicode="&#xbf;" horiz-adv-x="776" d="M535 1157q0 -41 -29.5 -69.5t-71.5 -28.5q-41 0 -69.5 28.5t-28.5 69.5t28.5 69.5t69.5 28.5q42 0 71.5 -28.5t29.5 -69.5zM702 53q-4 -3 -12.5 -7.5t-37 -16.5t-60.5 -21t-82.5 -16.5t-103.5 -7.5q-146 0 -231 78t-85 198q0 66 21 122.5t52.5 94t69 78t70 76t56 87 t26.5 111.5l4 72h100v-86q0 -72 -26.5 -133.5t-64 -105t-75 -85t-64 -93.5t-26.5 -111q0 -80 54.5 -131.5t144.5 -51.5q64 0 118.5 15.5t77.5 30.5l23 16z" />
<glyph unicode="&#xc0;" d="M401 1604v26h172l93 -297v-26h-91zM606 1229h33l606 -1229h-164l-108 213h-699l-108 -213h-162zM631 938h-17l-260 -569l-10 -19h559l-10 19z" />
<glyph unicode="&#xc1;" d="M670 1307h-88v26l92 297h170v-26zM606 1229h33l606 -1229h-164l-108 213h-699l-108 -213h-162zM631 938h-17l-260 -569l-10 -19h559l-10 19z" />
<glyph unicode="&#xc2;" d="M623 1522l-205 -215h-90v26l215 297h155l215 -297v-26h-90zM606 1229h33l606 -1229h-164l-108 213h-699l-108 -213h-162zM631 938h-17l-260 -569l-10 -19h559l-10 19z" />
<glyph unicode="&#xc3;" d="M762 1327q-48 0 -97.5 24t-92 48t-74.5 24q-36 0 -52.5 -18t-27.5 -53l-8 -27l-101 10l10 49q30 150 164 150q47 0 95.5 -24t91.5 -48t75 -24q67 0 82 71l7 27l100 -10l-8 -47q-12 -68 -52 -110t-112 -42zM606 1229h33l606 -1229h-164l-108 213h-699l-108 -213h-162z M631 938h-17l-260 -569l-10 -19h559l-10 19z" />
<glyph unicode="&#xc4;" d="M348 1470q0 35 26.5 62t61.5 27t61.5 -27t26.5 -62t-26.5 -61.5t-61.5 -26.5t-61.5 26.5t-26.5 61.5zM717 1470q0 35 26.5 62t61.5 27t61.5 -27t26.5 -62t-26.5 -61.5t-61.5 -26.5t-61.5 26.5t-26.5 61.5zM606 1229h33l606 -1229h-164l-108 213h-699l-108 -213h-162z M631 938h-17l-260 -569l-10 -19h559l-10 19z" />
<glyph unicode="&#xc5;" horiz-adv-x="1249" d="M586 1186q-69 12 -112.5 63t-43.5 121q0 80 55 133t138 53q82 0 136 -53t54 -133q0 -70 -43 -121t-111 -63l586 -1186h-164l-108 213h-699l-108 -213h-162zM719 1370q0 44 -26 71t-70 27t-71.5 -27t-27.5 -71q0 -43 27.5 -69.5t71.5 -26.5t70 26.5t26 69.5zM631 938h-17 l-260 -569l-10 -19h559l-10 19z" />
<glyph unicode="&#xc6;" horiz-adv-x="1861" d="M862 1229h920v-133h-758v-424h668v-133h-668v-406h758v-133h-901v213h-582l-147 -213h-177zM393 350h488v654h-17z" />
<glyph unicode="&#xc7;" horiz-adv-x="1210" d="M641 -92l33 65q-172 13 -306 100.5t-207 228t-73 310.5q0 180 80 326.5t227 231.5t334 85q81 0 154.5 -16t121 -39.5t83 -46.5t51.5 -39l16 -16l-82 -111q-5 5 -15 14t-44 32t-71 40.5t-94.5 32t-117.5 14.5q-144 0 -259 -69t-177 -184.5t-62 -254.5q0 -138 62 -253 t177 -184t259 -69q60 0 117 14t96 33.5t69.5 39t44.5 33.5l15 14l82 -111q-5 -6 -15.5 -16t-47.5 -36t-79 -46.5t-111.5 -38.5t-145.5 -21l-17 -32q62 0 101 -33t39 -96q0 -64 -44 -104t-122 -40q-45 0 -82.5 14.5t-52.5 29.5l-15 14l33 59q5 -5 14.5 -12t39.5 -19t61 -12 q41 0 65.5 19t24.5 53q0 32 -24 50.5t-62 18.5q-13 0 -23.5 -2.5t-15.5 -4.5l-4 -3z" />
<glyph unicode="&#xc8;" horiz-adv-x="1157" d="M446 1602v26h172l93 -297v-26h-90zM987 539h-668v-406h758v-133h-901v1229h901v-133h-758v-424h668v-133z" />
<glyph unicode="&#xc9;" horiz-adv-x="1157" d="M674 1307h-88v26l92 297h170v-26zM987 539h-668v-406h758v-133h-901v1229h901v-133h-758v-424h668v-133z" />
<glyph unicode="&#xca;" horiz-adv-x="1157" d="M641 1522l-205 -215h-90v26l215 297h156l215 -297v-26h-90zM987 539h-668v-406h758v-133h-901v1229h901v-133h-758v-424h668v-133z" />
<glyph unicode="&#xcb;" horiz-adv-x="1157" d="M365 1444q0 35 26.5 61.5t61.5 26.5t61.5 -26.5t26.5 -61.5t-26.5 -61.5t-61.5 -26.5t-61.5 26.5t-26.5 61.5zM733 1444q0 35 26.5 61.5t61.5 26.5t61.5 -26.5t26.5 -61.5t-26.5 -61.5t-61.5 -26.5t-61.5 26.5t-26.5 61.5zM987 539h-668v-406h758v-133h-901v1229h901 v-133h-758v-424h668v-133z" />
<glyph unicode="&#xcc;" horiz-adv-x="495" d="M25 1602v26h172l92 -297v-26h-90zM319 0h-143v1229h143v-1229z" />
<glyph unicode="&#xcd;" horiz-adv-x="495" d="M293 1307h-88v26l92 297h170v-26zM319 0h-143v1229h143v-1229z" />
<glyph unicode="&#xce;" horiz-adv-x="495" d="M252 1522l-205 -215h-90v26l215 297h156l215 -297v-26h-90zM319 0h-143v1229h143v-1229z" />
<glyph unicode="&#xcf;" horiz-adv-x="495" d="M-23 1444q0 35 27 61.5t62 26.5t61.5 -26.5t26.5 -61.5t-26.5 -61.5t-61.5 -26.5t-62 26.5t-27 61.5zM346 1444q0 35 26.5 61.5t61.5 26.5t61.5 -26.5t26.5 -61.5t-26.5 -61.5t-61.5 -26.5t-61.5 26.5t-26.5 61.5zM319 0h-143v1229h143v-1229z" />
<glyph unicode="&#xd0;" horiz-adv-x="1366" d="M37 672h156v557h425q194 0 342.5 -74.5t231 -214.5t82.5 -326q0 -280 -181 -447t-475 -167h-425v557h-156v115zM336 1096v-424h264v-115h-264v-424h274q147 0 264 56t185.5 166.5t68.5 258.5t-68.5 258.5t-185.5 167t-264 56.5h-274z" />
<glyph unicode="&#xd1;" horiz-adv-x="1425" d="M854 1358q-48 0 -97.5 24t-92 48t-74.5 24q-36 0 -52.5 -18.5t-27.5 -53.5l-8 -26l-101 10l11 49q30 150 163 150q47 0 96 -24.5t92 -48.5t75 -24q67 0 82 72l6 27l100 -11l-8 -47q-11 -67 -51.5 -109t-112.5 -42zM1249 0h-43l-887 928v-928h-143v1229h43l887 -924v924 h143v-1229z" />
<glyph unicode="&#xd2;" horiz-adv-x="1447" d="M500 1604v26h172l92 -297v-26h-90zM723 -29q-142 0 -262 50t-201 136t-126.5 203.5t-45.5 251.5q0 181 77 326.5t223 231t335 85.5q190 0 336.5 -85.5t223.5 -231t77 -326.5q0 -134 -45.5 -251.5t-127 -203.5t-201.5 -136t-263 -50zM723 109q221 0 356 145t135 358 q0 140 -58.5 255t-172 184t-260.5 69q-146 0 -259 -69t-172 -184t-59 -255q0 -139 59 -252.5t172 -182t259 -68.5z" />
<glyph unicode="&#xd3;" horiz-adv-x="1447" d="M762 1307h-88v26l92 297h170v-26zM723 -29q-142 0 -262 50t-201 136t-126.5 203.5t-45.5 251.5q0 181 77 326.5t223 231t335 85.5q190 0 336.5 -85.5t223.5 -231t77 -326.5q0 -134 -45.5 -251.5t-127 -203.5t-201.5 -136t-263 -50zM723 109q221 0 356 145t135 358 q0 140 -58.5 255t-172 184t-260.5 69q-146 0 -259 -69t-172 -184t-59 -255q0 -139 59 -252.5t172 -182t259 -68.5z" />
<glyph unicode="&#xd4;" horiz-adv-x="1447" d="M725 1522l-205 -215h-90v26l215 297h156l215 -297v-26h-90zM723 -29q-142 0 -262 50t-201 136t-126.5 203.5t-45.5 251.5q0 181 77 326.5t223 231t335 85.5q190 0 336.5 -85.5t223.5 -231t77 -326.5q0 -134 -45.5 -251.5t-127 -203.5t-201.5 -136t-263 -50zM723 109 q221 0 356 145t135 358q0 140 -58.5 255t-172 184t-260.5 69q-146 0 -259 -69t-172 -184t-59 -255q0 -139 59 -252.5t172 -182t259 -68.5z" />
<glyph unicode="&#xd5;" horiz-adv-x="1447" d="M864 1356q-48 0 -97.5 24t-92 48t-74.5 24q-36 0 -52.5 -18.5t-27.5 -53.5l-8 -26l-100 10l10 49q30 150 164 150q47 0 95.5 -24.5t91.5 -48.5t75 -24q67 0 82 72l6 27l100 -11l-8 -47q-11 -67 -51.5 -109t-112.5 -42zM723 -29q-142 0 -262 50t-201 136t-126.5 203.5 t-45.5 251.5q0 181 77 326.5t223 231t335 85.5q190 0 336.5 -85.5t223.5 -231t77 -326.5q0 -134 -45.5 -251.5t-127 -203.5t-201.5 -136t-263 -50zM723 109q221 0 356 145t135 358q0 140 -58.5 255t-172 184t-260.5 69q-146 0 -259 -69t-172 -184t-59 -255q0 -139 59 -252.5 t172 -182t259 -68.5z" />
<glyph unicode="&#xd6;" horiz-adv-x="1447" d="M451 1442q0 35 26.5 61.5t61.5 26.5t61.5 -26.5t26.5 -61.5t-26.5 -61.5t-61.5 -26.5t-61.5 26.5t-26.5 61.5zM819 1442q0 35 26.5 61.5t61.5 26.5t61.5 -26.5t26.5 -61.5t-26.5 -61.5t-61.5 -26.5t-61.5 26.5t-26.5 61.5zM723 -29q-142 0 -262 50t-201 136t-126.5 203.5 t-45.5 251.5q0 181 77 326.5t223 231t335 85.5q190 0 336.5 -85.5t223.5 -231t77 -326.5q0 -134 -45.5 -251.5t-127 -203.5t-201.5 -136t-263 -50zM723 109q221 0 356 145t135 358q0 140 -58.5 255t-172 184t-260.5 69q-146 0 -259 -69t-172 -184t-59 -255q0 -139 59 -252.5 t172 -182t259 -68.5z" />
<glyph unicode="&#xd7;" horiz-adv-x="1056" d="M123 299l321 322l-321 323l84 82l321 -321l322 321l84 -82l-324 -323l324 -322l-84 -82l-322 322l-321 -322z" />
<glyph unicode="&#xd8;" horiz-adv-x="1443" d="M723 -29q-255 0 -424 150l-127 -125l-82 82l129 127q-131 173 -131 407q0 181 77 326.5t223 231t335 85.5q249 0 420 -145l112 109l82 -82l-112 -111q135 -174 135 -414q0 -134 -45.5 -251.5t-127 -203.5t-201.5 -136t-263 -50zM233 612q0 -175 91 -305l716 703 q-133 110 -317 110q-146 0 -259 -69t-172 -184t-59 -255zM723 109q221 0 356 145t135 358q0 179 -94 312l-719 -703q128 -112 322 -112z" />
<glyph unicode="&#xd9;" horiz-adv-x="1347" d="M469 1604v26h172l92 -297v-26h-90zM674 -29q-241 0 -378.5 149t-137.5 394v715h143v-715q0 -184 96.5 -296t276.5 -112q181 0 277 112t96 296v715h143v-715q0 -246 -136.5 -394.5t-379.5 -148.5z" />
<glyph unicode="&#xda;" horiz-adv-x="1347" d="M715 1307h-88v26l92 297h170v-26zM674 -29q-241 0 -378.5 149t-137.5 394v715h143v-715q0 -184 96.5 -296t276.5 -112q181 0 277 112t96 296v715h143v-715q0 -246 -136.5 -394.5t-379.5 -148.5z" />
<glyph unicode="&#xdb;" horiz-adv-x="1347" d="M684 1522l-205 -215h-90v26l215 297h156l215 -297v-26h-90zM674 -29q-241 0 -378.5 149t-137.5 394v715h143v-715q0 -184 96.5 -296t276.5 -112q181 0 277 112t96 296v715h143v-715q0 -246 -136.5 -394.5t-379.5 -148.5z" />
<glyph unicode="&#xdc;" horiz-adv-x="1347" d="M397 1446q0 35 26.5 61.5t61.5 26.5t61.5 -26.5t26.5 -61.5t-26.5 -61.5t-61.5 -26.5t-61.5 26.5t-26.5 61.5zM766 1446q0 35 26.5 61.5t61.5 26.5t61.5 -26.5t26.5 -61.5t-26.5 -61.5t-61.5 -26.5t-61.5 26.5t-26.5 61.5zM674 -29q-241 0 -378.5 149t-137.5 394v715h143 v-715q0 -184 96.5 -296t276.5 -112q181 0 277 112t96 296v715h143v-715q0 -246 -136.5 -394.5t-379.5 -148.5z" />
<glyph unicode="&#xdd;" horiz-adv-x="1116" d="M602 1307h-88v26l92 297h170v-26zM940 1229h166l-477 -760v-469h-144v471l-475 758h168l342 -549l31 -66h18l33 66z" />
<glyph unicode="&#xde;" horiz-adv-x="1228" d="M319 1028h361q231 0 360 -106t129 -304q0 -206 -132.5 -315.5t-364.5 -109.5h-353v-193h-143v1229h143v-201zM1022 614q0 139 -92 209t-254 70h-357v-565h357q346 0 346 286z" />
<glyph unicode="&#xdf;" horiz-adv-x="964" d="M432 270v52l211 274h-379v-596h-141v938q0 175 77.5 264.5t243.5 89.5q36 0 72 -7.5t54 -14.5l18 -8l-41 -121q-43 22 -92 22q-95 0 -143 -51t-48 -164v-237h602v-29l-248 -317q127 -13 204 -83t77 -198q0 -139 -98.5 -219t-263.5 -80q-64 0 -117 9.5t-74 19.5l-20 10 l32 102q62 -26 179 -26q96 0 153.5 51t57.5 135q0 87 -60.5 135.5t-159.5 48.5h-96z" />
<glyph unicode="&#xe0;" horiz-adv-x="866" d="M201 1155v27h172l92 -297v-27h-90zM59 213q0 96 83 157.5t241 61.5q145 0 225 -59h13v37q0 97 -57 146.5t-181 49.5q-57 0 -109 -14t-75 -28l-23 -15l-51 106q4 3 10.5 7.5t32.5 16.5t56 21.5t80 17t106 7.5q179 0 262.5 -90t83.5 -244v-391h-99l-14 84h-8 q-9 -13 -25.5 -27.5t-47.5 -32t-82.5 -29t-114.5 -11.5q-151 0 -228.5 64.5t-77.5 164.5zM201 213q0 -55 48.5 -90t139.5 -35q93 0 160 44t67 85q0 52 -63.5 85.5t-163.5 33.5q-89 0 -138.5 -33t-49.5 -90z" />
<glyph unicode="&#xe1;" horiz-adv-x="866" d="M467 858h-88v27l92 297h170v-27zM59 213q0 96 83 157.5t241 61.5q145 0 225 -59h13v37q0 97 -57 146.5t-181 49.5q-57 0 -109 -14t-75 -28l-23 -15l-51 106q4 3 10.5 7.5t32.5 16.5t56 21.5t80 17t106 7.5q179 0 262.5 -90t83.5 -244v-391h-99l-14 84h-8 q-9 -13 -25.5 -27.5t-47.5 -32t-82.5 -29t-114.5 -11.5q-151 0 -228.5 64.5t-77.5 164.5zM201 213q0 -55 48.5 -90t139.5 -35q93 0 160 44t67 85q0 52 -63.5 85.5t-163.5 33.5q-89 0 -138.5 -33t-49.5 -90z" />
<glyph unicode="&#xe2;" horiz-adv-x="866" d="M428 1073l-205 -215h-90v27l215 297h156l215 -297v-27h-90zM59 213q0 96 83 157.5t241 61.5q145 0 225 -59h13v37q0 97 -57 146.5t-181 49.5q-57 0 -109 -14t-75 -28l-23 -15l-51 106q4 3 10.5 7.5t32.5 16.5t56 21.5t80 17t106 7.5q179 0 262.5 -90t83.5 -244v-391h-99 l-14 84h-8q-9 -13 -25.5 -27.5t-47.5 -32t-82.5 -29t-114.5 -11.5q-151 0 -228.5 64.5t-77.5 164.5zM201 213q0 -55 48.5 -90t139.5 -35q93 0 160 44t67 85q0 52 -63.5 85.5t-163.5 33.5q-89 0 -138.5 -33t-49.5 -90z" />
<glyph unicode="&#xe3;" horiz-adv-x="866" d="M575 905q-48 0 -97.5 24t-92 48t-74.5 24q-36 0 -52.5 -18t-27.5 -53l-8 -27l-100 10l10 50q30 149 164 149q47 0 95.5 -24t91.5 -48t75 -24q67 0 82 71l6 27l101 -10l-9 -47q-12 -68 -52 -110t-112 -42zM59 213q0 96 83 157.5t241 61.5q145 0 225 -59h13v37 q0 97 -57 146.5t-181 49.5q-57 0 -109 -14t-75 -28l-23 -15l-51 106q4 3 10.5 7.5t32.5 16.5t56 21.5t80 17t106 7.5q179 0 262.5 -90t83.5 -244v-391h-99l-14 84h-8q-9 -13 -25.5 -27.5t-47.5 -32t-82.5 -29t-114.5 -11.5q-151 0 -228.5 64.5t-77.5 164.5zM201 213 q0 -55 48.5 -90t139.5 -35q93 0 160 44t67 85q0 52 -63.5 85.5t-163.5 33.5q-89 0 -138.5 -33t-49.5 -90z" />
<glyph unicode="&#xe4;" horiz-adv-x="866" d="M156 989q0 35 26.5 61.5t61.5 26.5t61.5 -26.5t26.5 -61.5t-26.5 -61.5t-61.5 -26.5t-61.5 26.5t-26.5 61.5zM524 989q0 35 26.5 61.5t61.5 26.5t61.5 -26.5t26.5 -61.5t-26.5 -61.5t-61.5 -26.5t-61.5 26.5t-26.5 61.5zM59 213q0 96 83 157.5t241 61.5q145 0 225 -59h13 v37q0 97 -57 146.5t-181 49.5q-57 0 -109 -14t-75 -28l-23 -15l-51 106q4 3 10.5 7.5t32.5 16.5t56 21.5t80 17t106 7.5q179 0 262.5 -90t83.5 -244v-391h-99l-14 84h-8q-9 -13 -25.5 -27.5t-47.5 -32t-82.5 -29t-114.5 -11.5q-151 0 -228.5 64.5t-77.5 164.5zM201 213 q0 -55 48.5 -90t139.5 -35q93 0 160 44t67 85q0 52 -63.5 85.5t-163.5 33.5q-89 0 -138.5 -33t-49.5 -90z" />
<glyph unicode="&#xe5;" horiz-adv-x="866" d="M418 881q-83 0 -138 53t-55 133t55 133t138 53q82 0 136 -53t54 -133t-54 -133t-136 -53zM514 1067q0 44 -26 71t-70 27t-71.5 -27t-27.5 -71q0 -43 27.5 -69.5t71.5 -26.5t70 26.5t26 69.5zM59 213q0 96 83 157.5t241 61.5q145 0 225 -59h13v37q0 97 -57 146.5 t-181 49.5q-57 0 -109 -14t-75 -28l-23 -15l-51 106q4 3 10.5 7.5t32.5 16.5t56 21.5t80 17t106 7.5q179 0 262.5 -90t83.5 -244v-391h-99l-14 84h-8q-9 -13 -25.5 -27.5t-47.5 -32t-82.5 -29t-114.5 -11.5q-151 0 -228.5 64.5t-77.5 164.5zM201 213q0 -55 48.5 -90 t139.5 -35q93 0 160 44t67 85q0 52 -63.5 85.5t-163.5 33.5q-89 0 -138.5 -33t-49.5 -90z" />
<glyph unicode="&#xe6;" horiz-adv-x="1409" d="M1292 59q-4 -3 -11 -8.5t-32.5 -18.5t-54 -23t-75 -18.5t-95.5 -8.5q-100 0 -183 36t-136 101q-103 -135 -328 -135q-157 0 -237.5 65.5t-80.5 163.5q0 96 80 156.5t221 60.5q169 0 250 -63h8v32q0 211 -235 211q-57 0 -111 -13t-79 -27l-25 -13l-45 105q12 7 35.5 17.5 t98.5 28t153 17.5q208 0 295 -131q105 131 290 131q163 0 255.5 -97t92.5 -257v-45h-579q9 -110 82 -170t180 -60q61 0 115 14.5t78 29.5l24 14zM993 610q-88 0 -147 -48.5t-76 -137.5h436q-11 82 -67 134t-146 52zM195 213q0 -58 47 -90.5t145 -32.5q94 0 161.5 37t67.5 88 t-68.5 84t-160.5 33q-192 0 -192 -119z" />
<glyph unicode="&#xe7;" horiz-adv-x="745" d="M360 -92l39 80q-146 17 -236.5 117t-90.5 247q0 164 110 268.5t279 104.5q68 0 126 -15.5t83 -30.5l24 -15l-43 -107q-8 5 -22.5 13.5t-61.5 22t-96 13.5q-108 0 -182 -70t-74 -184t74 -182t182 -68q49 0 94 12.5t65 25.5l21 12l39 -107q-8 -6 -24 -15.5t-70 -26 t-115 -19.5l-22 -45q62 0 100.5 -33t38.5 -96q0 -64 -44 -104t-122 -40q-45 0 -82.5 14.5t-51.5 29.5l-15 14l32 59q5 -5 14.5 -12t39.5 -19t61 -12q41 0 65.5 19t24.5 53q0 32 -24 50.5t-62 18.5q-13 0 -23.5 -2.5t-14.5 -4.5l-5 -3z" />
<glyph unicode="&#xe8;" horiz-adv-x="851" d="M219 1155v27h172l92 -297v-27h-90zM737 63q-4 -3 -11 -8.5t-32 -19.5t-53.5 -24.5t-74.5 -19.5t-95 -9q-180 0 -289.5 103t-109.5 267q0 162 103.5 267.5t266.5 105.5q162 0 255.5 -99.5t93.5 -254.5v-47h-580q10 -109 82.5 -167.5t179.5 -58.5q61 0 114.5 15.5 t76.5 30.5l24 16zM440 610q-87 0 -145.5 -47.5t-77.5 -134.5h434q-14 80 -70.5 131t-140.5 51z" />
<glyph unicode="&#xe9;" horiz-adv-x="851" d="M481 858h-88v27l92 297h170v-27zM737 63q-4 -3 -11 -8.5t-32 -19.5t-53.5 -24.5t-74.5 -19.5t-95 -9q-180 0 -289.5 103t-109.5 267q0 162 103.5 267.5t266.5 105.5q162 0 255.5 -99.5t93.5 -254.5v-47h-580q10 -109 82.5 -167.5t179.5 -58.5q61 0 114.5 15.5t76.5 30.5 l24 16zM440 610q-87 0 -145.5 -47.5t-77.5 -134.5h434q-14 80 -70.5 131t-140.5 51z" />
<glyph unicode="&#xea;" horiz-adv-x="851" d="M446 1073l-204 -215h-90v27l215 297h155l215 -297v-27h-90zM737 63q-4 -3 -11 -8.5t-32 -19.5t-53.5 -24.5t-74.5 -19.5t-95 -9q-180 0 -289.5 103t-109.5 267q0 162 103.5 267.5t266.5 105.5q162 0 255.5 -99.5t93.5 -254.5v-47h-580q10 -109 82.5 -167.5t179.5 -58.5 q61 0 114.5 15.5t76.5 30.5l24 16zM440 610q-87 0 -145.5 -47.5t-77.5 -134.5h434q-14 80 -70.5 131t-140.5 51z" />
<glyph unicode="&#xeb;" horiz-adv-x="851" d="M168 989q0 35 26.5 61.5t61.5 26.5t61.5 -26.5t26.5 -61.5t-26.5 -61.5t-61.5 -26.5t-61.5 26.5t-26.5 61.5zM537 989q0 35 26.5 61.5t61.5 26.5t61.5 -26.5t26.5 -61.5t-26.5 -61.5t-61.5 -26.5t-61.5 26.5t-26.5 61.5zM737 63q-4 -3 -11 -8.5t-32 -19.5t-53.5 -24.5 t-74.5 -19.5t-95 -9q-180 0 -289.5 103t-109.5 267q0 162 103.5 267.5t266.5 105.5q162 0 255.5 -99.5t93.5 -254.5v-47h-580q10 -109 82.5 -167.5t179.5 -58.5q61 0 114.5 15.5t76.5 30.5l24 16zM440 610q-87 0 -145.5 -47.5t-77.5 -134.5h434q-14 80 -70.5 131t-140.5 51z " />
<glyph unicode="&#xec;" horiz-adv-x="393" d="M-31 1155v27h172l92 -297v-27h-90zM127 709h141v-709h-141v709z" />
<glyph unicode="&#xed;" horiz-adv-x="393" d="M240 858h-88v27l92 297h170v-27zM127 709h141v-709h-141v709z" />
<glyph unicode="&#xee;" horiz-adv-x="393" d="M201 1073l-205 -215h-90v27l215 297h155l216 -297v-27h-91zM127 709h141v-709h-141v709z" />
<glyph unicode="&#xef;" horiz-adv-x="393" d="M-72 989q0 35 26.5 61.5t61.5 26.5t61.5 -26.5t26.5 -61.5t-26.5 -61.5t-61.5 -26.5t-61.5 26.5t-26.5 61.5zM297 989q0 35 26.5 61.5t61.5 26.5t61.5 -26.5t26.5 -61.5t-26.5 -61.5t-61.5 -26.5t-61.5 26.5t-26.5 61.5zM127 709h141v-709h-141v709z" />
<glyph unicode="&#xf0;" horiz-adv-x="964" d="M184 885l226 129l-125 194v21h133l100 -154l205 117l47 -82l-201 -115l211 -323q39 -64 58.5 -100.5t36 -96t16.5 -125.5q0 -168 -113.5 -269t-296.5 -101q-182 0 -295.5 101.5t-113.5 268.5q0 161 113.5 266t299.5 105q51 0 125 -19v9q-33 43 -88 129l-61 92l-230 -131z M481 98q116 0 191.5 71t75.5 183q0 114 -77 182t-186 68q-119 0 -194.5 -71.5t-75.5 -178.5q0 -112 75 -183t191 -71z" />
<glyph unicode="&#xf1;" horiz-adv-x="933" d="M598 905q-48 0 -97.5 24t-92 48t-74.5 24q-36 0 -52.5 -18t-27.5 -53l-8 -27l-101 10l11 50q30 149 163 149q47 0 96 -24t92 -48t75 -24q67 0 82 71l6 27l100 -10l-8 -47q-12 -68 -52 -110t-112 -42zM264 0h-141v709h98l15 -103h8q82 119 264 119q147 0 231 -87.5 t84 -234.5v-403h-141v385q0 99 -53.5 160t-151.5 61q-70 0 -120.5 -32t-71.5 -74t-21 -86v-414z" />
<glyph unicode="&#xf2;" horiz-adv-x="913" d="M231 1155v27h172l93 -297v-27h-90zM844 350q0 -165 -111.5 -265.5t-275.5 -100.5t-274.5 100.5t-110.5 265.5q0 167 111 271t274 104q164 0 275.5 -104t111.5 -271zM457 98q105 0 176.5 69.5t71.5 184.5t-72 186.5t-176 71.5q-103 0 -174.5 -71.5t-71.5 -186.5 t71.5 -184.5t174.5 -69.5z" />
<glyph unicode="&#xf3;" horiz-adv-x="913" d="M508 858h-88v27l92 297h170v-27zM844 350q0 -165 -111.5 -265.5t-275.5 -100.5t-274.5 100.5t-110.5 265.5q0 167 111 271t274 104q164 0 275.5 -104t111.5 -271zM457 98q105 0 176.5 69.5t71.5 184.5t-72 186.5t-176 71.5q-103 0 -174.5 -71.5t-71.5 -186.5t71.5 -184.5 t174.5 -69.5z" />
<glyph unicode="&#xf4;" horiz-adv-x="913" d="M459 1073l-205 -215h-90v27l215 297h156l215 -297v-27h-91zM844 350q0 -165 -111.5 -265.5t-275.5 -100.5t-274.5 100.5t-110.5 265.5q0 167 111 271t274 104q164 0 275.5 -104t111.5 -271zM457 98q105 0 176.5 69.5t71.5 184.5t-72 186.5t-176 71.5q-103 0 -174.5 -71.5 t-71.5 -186.5t71.5 -184.5t174.5 -69.5z" />
<glyph unicode="&#xf5;" horiz-adv-x="913" d="M596 905q-48 0 -97.5 24t-92 48t-74.5 24q-36 0 -52.5 -18t-27.5 -53l-8 -27l-101 10l11 50q30 149 163 149q47 0 96 -24t92 -48t75 -24q67 0 82 71l6 27l100 -10l-8 -47q-12 -68 -52 -110t-112 -42zM844 350q0 -165 -111.5 -265.5t-275.5 -100.5t-274.5 100.5 t-110.5 265.5q0 167 111 271t274 104q164 0 275.5 -104t111.5 -271zM457 98q105 0 176.5 69.5t71.5 184.5t-72 186.5t-176 71.5q-103 0 -174.5 -71.5t-71.5 -186.5t71.5 -184.5t174.5 -69.5z" />
<glyph unicode="&#xf6;" horiz-adv-x="913" d="M182 989q0 35 26.5 61.5t61.5 26.5t61.5 -26.5t26.5 -61.5t-26.5 -61.5t-61.5 -26.5t-61.5 26.5t-26.5 61.5zM551 989q0 35 26.5 61.5t61.5 26.5t61.5 -26.5t26.5 -61.5t-26.5 -61.5t-61.5 -26.5t-61.5 26.5t-26.5 61.5zM844 350q0 -165 -111.5 -265.5t-275.5 -100.5 t-274.5 100.5t-110.5 265.5q0 167 111 271t274 104q164 0 275.5 -104t111.5 -271zM457 98q105 0 176.5 69.5t71.5 184.5t-72 186.5t-176 71.5q-103 0 -174.5 -71.5t-71.5 -186.5t71.5 -184.5t174.5 -69.5z" />
<glyph unicode="&#xf7;" horiz-adv-x="1036" d="M416 920q0 43 29.5 72.5t72.5 29.5q42 0 72.5 -30t30.5 -72t-30.5 -71.5t-72.5 -29.5q-43 0 -72.5 29t-29.5 72zM121 666h794v-119h-794v119zM416 303q0 43 29.5 73t72.5 30q42 0 72.5 -30.5t30.5 -72.5t-30.5 -71t-72.5 -29q-43 0 -72.5 28.5t-29.5 71.5z" />
<glyph unicode="&#xf8;" horiz-adv-x="913" d="M846 350q0 -165 -111.5 -265.5t-275.5 -100.5q-144 0 -248 75l-78 -79l-55 55l80 76q-84 97 -84 239q0 167 111 271t274 104q131 0 235 -74l84 88l56 -55l-82 -82q94 -104 94 -252zM213 352q0 -86 41 -145l354 354q-68 49 -149 49q-103 0 -174.5 -71.5t-71.5 -186.5z M459 98q105 0 176.5 69.5t71.5 184.5q0 92 -50 158l-356 -358q66 -54 158 -54z" />
<glyph unicode="&#xf9;" horiz-adv-x="927" d="M242 1155v27h172l92 -297v-27h-90zM666 709h141v-709h-92l-25 100h-6q-5 -10 -15.5 -22.5t-32.5 -30t-50 -31t-72 -23t-94 -9.5q-147 0 -228 87t-81 234v404h141v-385q0 -100 50.5 -161t148.5 -61q103 0 159 61.5t56 131.5v414z" />
<glyph unicode="&#xfa;" horiz-adv-x="927" d="M510 858h-88v27l92 297h170v-27zM666 709h141v-709h-92l-25 100h-6q-5 -10 -15.5 -22.5t-32.5 -30t-50 -31t-72 -23t-94 -9.5q-147 0 -228 87t-81 234v404h141v-385q0 -100 50.5 -161t148.5 -61q103 0 159 61.5t56 131.5v414z" />
<glyph unicode="&#xfb;" horiz-adv-x="927" d="M457 1073l-205 -215h-90v27l215 297h155l216 -297v-27h-91zM666 709h141v-709h-92l-25 100h-6q-5 -10 -15.5 -22.5t-32.5 -30t-50 -31t-72 -23t-94 -9.5q-147 0 -228 87t-81 234v404h141v-385q0 -100 50.5 -161t148.5 -61q103 0 159 61.5t56 131.5v414z" />
<glyph unicode="&#xfc;" horiz-adv-x="927" d="M188 989q0 35 26.5 61.5t61.5 26.5t62 -26.5t27 -61.5t-27 -61.5t-62 -26.5t-61.5 26.5t-26.5 61.5zM557 989q0 35 26.5 61.5t61.5 26.5t61.5 -26.5t26.5 -61.5t-26.5 -61.5t-61.5 -26.5t-61.5 26.5t-26.5 61.5zM666 709h141v-709h-92l-25 100h-6q-5 -10 -15.5 -22.5 t-32.5 -30t-50 -31t-72 -23t-94 -9.5q-147 0 -228 87t-81 234v404h141v-385q0 -100 50.5 -161t148.5 -61q103 0 159 61.5t56 131.5v414z" />
<glyph unicode="&#xfd;" horiz-adv-x="833" d="M469 858h-88v27l92 297h170v-27zM289 -393h-150l213 432l-325 670h155l226 -490q12 -32 12 -51h8q0 19 12 51l224 490h145z" />
<glyph unicode="&#xfe;" horiz-adv-x="958" d="M262 131v-524h-141v1622h141v-647h6q2 6 7.5 15.5t27 34t48.5 43.5t75 34.5t104 15.5q153 0 254 -102.5t101 -268.5q0 -163 -101.5 -266.5t-253.5 -103.5q-57 0 -105.5 15t-76 37t-47 43.5t-26.5 36.5l-7 15h-6zM256 354q0 -115 70.5 -183.5t175.5 -68.5q104 0 171.5 70 t67.5 182q0 110 -68 181t-171 71q-105 0 -175.5 -68.5t-70.5 -183.5z" />
<glyph unicode="&#xff;" horiz-adv-x="833" d="M152 989q0 35 26.5 61.5t61.5 26.5t61.5 -26.5t26.5 -61.5t-26.5 -61.5t-61.5 -26.5t-61.5 26.5t-26.5 61.5zM520 989q0 35 26.5 61.5t61.5 26.5t61.5 -26.5t26.5 -61.5t-26.5 -61.5t-61.5 -26.5t-61.5 26.5t-26.5 61.5zM289 -393h-150l213 432l-325 670h155l226 -490 q12 -32 12 -51h8q0 19 12 51l224 490h145z" />
<glyph unicode="&#x152;" horiz-adv-x="2195" d="M723 -29q-142 0 -262 50t-201 136t-126.5 203.5t-45.5 251.5q0 181 77 326.5t223 231t335 85.5q154 0 279.5 -57t211.5 -160v191h902v-133h-758v-424h667v-133h-667v-406h758v-133h-902v188q-86 -103 -211.5 -160t-279.5 -57zM723 109q221 0 355 145t134 358 q0 140 -58 255t-171 184t-260 69q-146 0 -259 -69t-172 -184t-59 -255q0 -139 59 -252.5t172 -182t259 -68.5z" />
<glyph unicode="&#x153;" horiz-adv-x="1486" d="M1372 63q-4 -3 -11 -8.5t-32 -19.5t-53.5 -24.5t-74.5 -19.5t-95 -9q-109 0 -195 39t-137 110q-52 -70 -135 -108.5t-182 -38.5q-164 0 -274.5 100.5t-110.5 265.5q0 167 111 271t274 104q97 0 179.5 -40t135.5 -112q51 72 129 112t176 40q162 0 255 -99.5t93 -254.5v-47 h-579q10 -109 82.5 -167.5t179.5 -58.5q61 0 114.5 15.5t77.5 30.5l23 16zM457 98q105 0 176.5 69.5t71.5 184.5t-72 186.5t-176 71.5q-103 0 -174.5 -71.5t-71.5 -186.5t71.5 -184.5t174.5 -69.5zM1075 610q-87 0 -145.5 -47.5t-77.5 -134.5h434q-14 80 -70.5 131 t-140.5 51z" />
<glyph unicode="&#x178;" horiz-adv-x="1116" d="M287 1444q0 35 26.5 61.5t61.5 26.5t61.5 -26.5t26.5 -61.5t-26.5 -61.5t-61.5 -26.5t-61.5 26.5t-26.5 61.5zM655 1444q0 35 26.5 61.5t61.5 26.5t61.5 -26.5t26.5 -61.5t-26.5 -61.5t-61.5 -26.5t-61.5 26.5t-26.5 61.5zM940 1229h166l-477 -760v-469h-144v471 l-475 758h168l342 -549l31 -66h18l33 66z" />
<glyph unicode="&#x2c6;" horiz-adv-x="673" d="M348 1073l-205 -215h-90v27l215 297h156l215 -297v-27h-90z" />
<glyph unicode="&#x2dc;" horiz-adv-x="880" d="M571 905q-48 0 -97.5 24t-92 48t-74.5 24q-36 0 -52.5 -18t-27.5 -53l-8 -27l-100 10l10 50q30 149 164 149q47 0 95.5 -24t91.5 -48t75 -24q67 0 82 71l6 27l100 -10l-8 -47q-12 -68 -52 -110t-112 -42z" />
<glyph unicode="&#x2000;" horiz-adv-x="815" />
<glyph unicode="&#x2001;" horiz-adv-x="1630" />
<glyph unicode="&#x2002;" horiz-adv-x="815" />
<glyph unicode="&#x2003;" horiz-adv-x="1630" />
<glyph unicode="&#x2004;" horiz-adv-x="543" />
<glyph unicode="&#x2005;" horiz-adv-x="407" />
<glyph unicode="&#x2006;" horiz-adv-x="271" />
<glyph unicode="&#x2007;" horiz-adv-x="271" />
<glyph unicode="&#x2008;" horiz-adv-x="203" />
<glyph unicode="&#x2009;" horiz-adv-x="326" />
<glyph unicode="&#x200a;" horiz-adv-x="90" />
<glyph unicode="&#x2010;" horiz-adv-x="804" d="M111 662h583v-119h-583v119z" />
<glyph unicode="&#x2011;" horiz-adv-x="804" d="M111 662h583v-119h-583v119z" />
<glyph unicode="&#x2012;" horiz-adv-x="804" d="M111 662h583v-119h-583v119z" />
<glyph unicode="&#x2013;" horiz-adv-x="937" d="M111 649h716v-119h-716v119z" />
<glyph unicode="&#x2014;" horiz-adv-x="1484" d="M111 649h1263v-119h-1263v119z" />
<glyph unicode="&#x2018;" horiz-adv-x="382" d="M279 1092q0 -41 -28 -70t-69 -29q-42 0 -71 29.5t-29 71.5q0 61 35 120l84 152h100l-76 -135q-6 -11 -13 -20.5t-11 -12.5l-4 -4v-8q37 -5 59.5 -30.5t22.5 -63.5z" />
<glyph unicode="&#x2019;" horiz-adv-x="382" d="M115 1249q0 42 27.5 70.5t68.5 28.5t70.5 -29t29.5 -72q0 -62 -35 -121l-83 -151h-101l76 135q6 11 13.5 20.5t11.5 13.5l4 3v8q-37 5 -59.5 30.5t-22.5 63.5z" />
<glyph unicode="&#x201a;" horiz-adv-x="294" d="M49 80q0 41 27.5 69.5t68.5 28.5q42 0 71.5 -29t29.5 -71q0 -62 -35 -121l-84 -152h-100l75 136q6 11 13.5 20t11.5 13l4 3v9q-37 5 -59.5 30.5t-22.5 63.5z" />
<glyph unicode="&#x201c;" horiz-adv-x="749" d="M279 1092q0 -41 -28 -70t-69 -29q-42 0 -71 29.5t-29 71.5q0 61 35 120l84 152h100l-76 -135q-6 -11 -13 -20.5t-11 -12.5l-4 -4v-8q37 -5 59.5 -30.5t22.5 -63.5zM645 1092q0 -42 -27.5 -70.5t-68.5 -28.5t-70.5 29.5t-29.5 71.5q0 62 34 120l84 152h101l-76 -135 q-6 -11 -13.5 -20.5t-11.5 -12.5l-4 -4v-8q37 -5 59.5 -30.5t22.5 -63.5z" />
<glyph unicode="&#x201d;" horiz-adv-x="727" d="M104 1249q0 41 28 70t69 29t70.5 -29t29.5 -72q0 -62 -35 -121l-84 -151h-100l76 135q6 11 13 20.5t11 13.5l4 3v8q-37 5 -59.5 30.5t-22.5 63.5zM449 1249q0 42 27.5 70.5t68.5 28.5t70.5 -29t29.5 -72q0 -62 -35 -121l-84 -151h-100l76 135q6 11 13 20.5t11 13.5l4 3v8 q-37 5 -59 30.5t-22 63.5z" />
<glyph unicode="&#x201e;" horiz-adv-x="759" d="M49 80q0 41 27.5 69.5t68.5 28.5q42 0 71.5 -29t29.5 -71q0 -62 -35 -121l-84 -152h-100l75 136q6 11 13.5 20t11.5 13l4 3v9q-37 5 -59.5 30.5t-22.5 63.5zM514 80q0 41 27.5 69.5t68.5 28.5q42 0 71.5 -29t29.5 -71q0 -62 -35 -121l-84 -152h-100l75 136q6 11 13.5 20 t11.5 13l4 3v9q-37 5 -59.5 30.5t-22.5 63.5z" />
<glyph unicode="&#x2022;" horiz-adv-x="612" d="M158 354q0 61 43.5 105.5t105.5 44.5q60 0 104 -45t44 -105q0 -61 -44 -104t-104 -43q-63 0 -106 42.5t-43 104.5z" />
<glyph unicode="&#x2026;" horiz-adv-x="989" d="M51 86q0 43 29.5 72.5t73.5 29.5q43 0 72.5 -29.5t29.5 -72.5q0 -44 -29.5 -74t-72.5 -30q-44 0 -73.5 30t-29.5 74zM391 86q0 43 30 72.5t73 29.5q44 0 74 -29.5t30 -72.5q0 -44 -30 -74t-74 -30q-43 0 -73 30t-30 74zM733 86q0 43 30 72.5t73 29.5q44 0 74 -29.5 t30 -72.5q0 -44 -30 -74t-74 -30q-43 0 -73 30t-30 74z" />
<glyph unicode="&#x202f;" horiz-adv-x="326" />
<glyph unicode="&#x2039;" horiz-adv-x="501" d="M80 371l217 317h123v-16l-213 -314v-10l213 -317v-17h-123l-217 318v39z" />
<glyph unicode="&#x203a;" horiz-adv-x="501" d="M422 332l-217 -318h-123v17l213 317v10l-213 314v16h123l217 -317v-39z" />
<glyph unicode="&#x205f;" horiz-adv-x="407" />
<glyph unicode="&#x20ac;" horiz-adv-x="1226" d="M858 408h-457q42 -132 138 -208.5t243 -76.5q49 0 95 12t76 28.5t53.5 33.5t33.5 29l11 12l84 -107q-5 -6 -13.5 -15.5t-41 -34.5t-70 -44.5t-100 -35t-130.5 -15.5q-213 0 -348 116t-182 306h-164v114h143q-4 31 -4 92q0 57 4 86h-143v115h162q47 194 181.5 312 t350.5 118q68 0 130 -15t101.5 -36.5t69.5 -42.5t43 -36l13 -15l-86 -109q-4 5 -11 12.5t-33 27.5t-54.5 35t-75 27.5t-95.5 12.5q-148 0 -244.5 -78.5t-138.5 -212.5h459v-115h-481q-4 -58 -4 -86q0 -63 4 -92h481v-114z" />
<glyph unicode="&#x2122;" horiz-adv-x="1515" d="M592 1141h-209v-566h-100v566h-209v88h518v-88zM721 575v654h33l288 -273q26 23 84.5 78t125 117t83.5 78h31v-654h-100v465l-209 -198h-27l-209 198v-465h-100z" />
<glyph unicode="&#x25fc;" horiz-adv-x="706" d="M0 707h707v-707h-707v707z" />
</font>
</defs>
</svg>
